<svg xmlns="http://www.w3.org/2000/svg" version="1.1" xmlns:xlink="http://www.w3.org/1999/xlink" xmlns:svgjs="http://svgjs.com/svgjs" width="512" height="512" x="0" y="0" viewBox="0 0 423.253 423.253" style="enable-background:new 0 0 512 512" xml:space="preserve" class=""><g><path d="M229.547 309.547h1.493a23.67 23.67 0 0 1 6.187-3.2H240a11.316 11.316 0 0 1 5.333-1.067h2.773a38.385 38.385 0 0 1 6.4-1.493H256l7.68-1.067h116.693V58.24h-94.72c-35.346 0-64 28.654-64 64l.853 191.36a39.021 39.021 0 0 1 7.041-4.053zM42.88 57.813v.427z" fill="#000000" data-original="#000000" class=""></path><path d="M399.787 101.76v210.133c.003.144.003.288 0 .431-.119 5.301-4.513 9.501-9.813 9.382h-104.32c-53.76 0-64 15.573-64 39.04v4.693c22.827-17.707 61.44-17.707 81.28-17.707h119.68l.64-245.973h-23.467zM152.32 307.2H160.213l7.893 1.067h1.493l6.4 1.493h2.773c1.819.101 3.615.46 5.333 1.067h2.773l6.187 3.2h1.493a60.244 60.244 0 0 0 7.04 4.053V122.24c0-35.346-28.654-64-64-64H42.88V307.2h109.44z" fill="#000000" data-original="#000000" class=""></path><path d="M137.6 322.347H33.28a10.24 10.24 0 0 1-9.813-9.813V101.76H0v245.547h118.827c21.333 0 60.16 0 82.987 18.133l-.213-4.053c-.001-23.467-10.668-39.04-64.001-39.04z" fill="#000000" data-original="#000000" class=""></path></g></svg>