<svg xmlns="http://www.w3.org/2000/svg" version="1.1" xmlns:xlink="http://www.w3.org/1999/xlink" xmlns:svgjs="http://svgjs.com/svgjs" width="512" height="512" x="0" y="0" viewBox="0 0 43.349 43.349" style="enable-background:new 0 0 512 512" xml:space="preserve" fill-rule="evenodd" class=""><g><path d="M15.47 0H10.69c-.033 0-.043.003-.067.026L4.457 6.193 7.67 9.406l3.263-3.263V25.59c1.57.438 3.143.75 4.718.936a29.38 29.38 0 0 0 4.658.179l.822-7.49v-4.056h6.145V6.143l3.263 3.263 3.213-3.213L27.586.026C27.563.003 27.553 0 27.52 0h-4.782c-1.713 1.475-5.554 1.475-7.268 0zm6.95 1.349c-1.265 3.432-5.366 3.432-6.631 0 1.91.959 4.72.959 6.63 0z" fill="#000000" data-original="#000000" class=""></path><path d="M25.682 16.121h-3.588v2.627h3.588zM31.838 16.121h-5.193v2.627h5.193zM36.389 16.121H32.8v2.627h3.588zM37.11 25.807l-.67-6.096h-1.175v5.162c0 .513.42.934.933.934z" fill="#000000" data-original="#000000" class=""></path><path d="M34.301 19.711h-4.578v7.008l2.187 13.805h6.815l-1.51-13.754h-1.017a1.901 1.901 0 0 1-1.897-1.897zM28.76 19.711h-4.578v5.162a1.901 1.901 0 0 1-1.897 1.897h-1.017l-1.51 13.754h6.815l2.187-13.806z" fill="#000000" data-original="#000000" class=""></path><path d="M23.219 24.873v-5.162h-1.176l-.67 6.096h.912a.938.938 0 0 0 .934-.934zM26.42 41.487h-6.768l-.054.49a1.234 1.234 0 0 0 1.237 1.372h4.228c.626 0 1.133-.447 1.23-1.063zM38.83 41.487h-6.767l.126.799a1.239 1.239 0 0 0 1.231 1.063h4.228c.743 0 1.318-.632 1.237-1.371z" fill="#000000" data-original="#000000" class=""></path></g></svg>