<svg xmlns="http://www.w3.org/2000/svg" version="1.1" xmlns:xlink="http://www.w3.org/1999/xlink" xmlns:svgjs="http://svgjs.com/svgjs" width="512" height="512" x="0" y="0" viewBox="0 0 64 64" style="enable-background:new 0 0 512 512" xml:space="preserve" fill-rule="evenodd"><g><path d="M20 57H3v1c0 .796.316 1.559.879 2.121A2.996 2.996 0 0 0 6 61h11c.796 0 1.559-.316 2.121-.879A2.996 2.996 0 0 0 20 58zM3 35h17v20H3zM3 33h17v-1c0-.796-.316-1.559-.879-2.121A2.996 2.996 0 0 0 17 29H6c-.796 0-1.559.316-2.121.879A2.996 2.996 0 0 0 3 32zM61 56H34v2c0 .796.316 1.559.879 2.121A2.996 2.996 0 0 0 37 61h21c.796 0 1.559-.316 2.121-.879A2.996 2.996 0 0 0 61 58zM34 27h27v27H34zM34 25h27v-2c0-.796-.316-1.559-.879-2.121A2.996 2.996 0 0 0 58 20H37c-.796 0-1.559.316-2.121.879A2.996 2.996 0 0 0 34 23zM32 41H22v4h5.847l-.714 5H24c-.796 0-1.559.316-2.121.879A2.996 2.996 0 0 0 21 53v2a1 1 0 0 0 1 1h10z" fill="#000000" data-original="#000000"></path><path d="M32 39V23c0-1.326.527-2.598 1.464-3.536A5.004 5.004 0 0 1 37 18h20v-4c0-.796-.316-1.559-.879-2.121A2.996 2.996 0 0 0 54 11H10c-.796 0-1.559.316-2.121.879A2.996 2.996 0 0 0 7 14v13h10c1.326 0 2.598.527 3.536 1.464A5.004 5.004 0 0 1 22 32v7z" fill="#000000" data-original="#000000"></path></g></svg>