<svg xmlns="http://www.w3.org/2000/svg" version="1.1" xmlns:xlink="http://www.w3.org/1999/xlink" xmlns:svgjs="http://svgjs.com/svgjs" width="512" height="512" x="0" y="0" viewBox="0 0 553.877 535.596" style="enable-background:new 0 0 512 512" xml:space="preserve"><g><path d="M330.277 55.981c0 18.101-8.573 35.769-23.382 46.342-14.592 10.418-33.95 12.576-50.413 5.389-16.373-7.148-28.134-22.537-31.687-39.935-3.684-18.04 1.406-37.39 13.987-50.918C250.967 3.757 269.245-2.538 286.878.95c17.428 3.448 31.942 16.056 38.821 32.298 3.038 7.173 4.578 14.946 4.578 22.733zM216.775 79.312H75.606c-.065 0-.03 3.181-.03 3.4v17.339c0 .392-.275 1.261.231 1.261H229.53c-5.593-6.443-9.924-13.954-12.755-22zM337.111 79.312c-2.831 8.045-7.162 15.556-12.753 22h161.186c.068 0 .033-11.641.033-12.496v-8.142c0-.377.279-1.362-.221-1.362H337.111z" fill="#000000" data-original="#000000"></path><path d="M384.868 214.676c8.876 2.8 18.867-.304 24.595-7.64 1.807-2.314 3.007-5.017 4.307-7.631l14.381-28.899 15.956-32.065 3.766-7.569c3.114-6.257 3.128-13.646-.262-19.811-4.472-8.133-14.103-12.371-23.123-10.23-6.136 1.456-10.728 5.492-13.841 10.837l-15.814 27.151-13.273 22.789c-.069.118-4.119-1.865-4.382-1.987l-12.173-5.616-34.698-16.009-26.626-12.284c-3.999-1.845-8.078-3.743-12.429-4.536-2.515-.459-5.034-.443-7.578-.514a237.59 237.59 0 0 0-8.141-.067c-4.646.029-9.489-.212-14.043.818-4.048.916-7.863 2.696-11.622 4.43l-10.938 5.047-34.099 15.733-28.521 13.159c-.312.144-3.938 1.995-4.065 1.778l-4.538-7.791-18.686-32.082a92625.25 92625.25 0 0 1-5.952-10.219c-3.287-5.644-8.47-9.735-15.003-10.878-9.149-1.6-18.494 3.253-22.462 11.646-2.852 6.033-2.527 12.843.417 18.758l11.254 22.615 17.055 34.273 5.901 11.858c1.423 2.861 2.744 5.727 4.865 8.171a22.8 22.8 0 0 0 11.704 7.152c4.339 1.07 8.685.705 12.915-.625l9.223-2.899 31.531-9.913.733-.23c.386-.121.718-1.96.859-2.369 1.149-3.343 2.475-6.626 3.899-9.86 1.3-2.95 2.679-5.874 4.242-8.695.841-1.519 1.83-3.755 3.348-4.744-.947 4.306-1.901 8.61-2.833 12.92a684.395 684.395 0 0 0-1.351 6.362c-.098.475-.976 3.921-.702 4.04-3.626 21.661-4.149 43.767-3.075 65.667.158 3.225.338 6.449.599 9.668.118 1.458.253 2.914.404 4.369l-1.701 4.194a1947.813 1947.813 0 0 0-6.654 16.608 3351.746 3351.746 0 0 0-13.623 35.042c-4.605 12.053-9.146 24.129-13.68 36.209-4.611 12.286-9.452 24.486-14.096 36.759-8.899 23.519-17.757 47.056-26.245 70.728-3.025 8.437-6.242 16.834-9.012 25.36-2.867 8.826.009 18.818 7.132 24.767 7.05 5.888 17.171 7.006 25.336 2.808a23.07 23.07 0 0 0 9.546-9.222c1.579-2.822 3.031-5.722 4.542-8.581 11.417-21.608 22.497-43.408 33.391-65.284a8197.867 8197.867 0 0 0 22.407-45.306c.847-1.723 1.839-3.424 2.555-5.203-.027.067-.054.137-.086.202 5.383-10.335 10.807-20.648 16.118-31.02 2.915-5.692 5.85-11.374 8.744-17.076 1.401-2.759 2.788-5.525 4.179-8.29l.498-.989c.244-.486.427-.304.926-.262.765.064 1.53.118 2.296.164 1.676.101 3.355.161 5.034.192 2.704.049 5.411.03 8.114-.074a115.32 115.32 0 0 0 3.405-.183c.547-.038.477.186.695.642.703 1.472 1.407 2.943 2.114 4.413 2.7 5.658 5.41 11.311 8.15 16.95a7309.594 7309.594 0 0 0 17.252 35.243l3.298 6.693c-.011-.029-.024-.07-.038-.1.041.084.068.174.106.259-.191-.426-.345-.873-.517-1.306 9.407 21.934 18.788 43.882 28.508 65.68 4.962 11.127 9.914 22.257 14.99 33.333 2.021 4.411 4.014 8.836 6.061 13.234 1.745 3.75 3.272 7.845 5.788 11.162 5.804 7.652 16.043 10.932 25.212 8.085 8.765-2.721 15.214-10.647 16.102-19.782.413-4.243-.661-8.11-1.804-12.136-1.301-4.583-2.649-9.151-3.986-13.724a3351.25 3351.25 0 0 0-10.13-33.872c-7.32-24.08-14.953-48.061-22.619-72.033-.613-1.917-1.35-3.794-2.027-5.69-2.217-6.211-4.435-12.422-6.648-18.634a3091.482 3091.482 0 0 0-13.083-35.96c-4.281-11.567-8.565-23.134-13.001-34.643-.493-1.28-.989-2.558-1.482-3.838l-.785-2.037c-.268-.695-.794-1.561-.711-2.304.345-3.104.611-6.217.806-9.334.395-6.335.658-12.679.763-19.026.322-19.553-.658-39.488-4.689-58.592-1.215-5.757-2.495-11.5-3.759-17.246.865.564 1.474 1.631 2.014 2.479.982 1.544 1.845 3.165 2.672 4.796 2.1 4.14 3.96 8.412 5.613 12.749.383 1.005.753 2.015 1.106 3.032.112.324.596 2.503.852 2.584l.824.259 5.156 1.621 32.446 10.2c1.302.402 2.601.812 3.901 1.222zM67.16 125.479c0 9.319-8.038 16.946-17.34 16.479-8.682-.436-15.66-7.827-15.66-16.505V53.507c0-1.002-.017-2.003.083-3.002.445-4.425 2.722-8.547 6.214-11.298 7.302-5.753 18.249-4.163 23.642 3.393 2.015 2.823 3.061 6.216 3.061 9.678v68.172zM519.726 129.112c0 4.473-2.395 8.709-6.223 11.021-3.882 2.345-8.861 2.447-12.835.261-3.906-2.147-6.474-6.27-6.665-10.725-.028-.664-.012-1.332-.012-1.996V48.245c0-3.685 1.575-7.238 4.337-9.686 3.39-3.005 8.241-4.008 12.547-2.595 4.201 1.379 7.479 4.938 8.502 9.24.583 2.453.349 5.191.349 7.696v68.225zM553.877 115.212c0 4.473-2.395 8.709-6.223 11.021-3.882 2.345-8.861 2.447-12.835.261-3.906-2.148-6.474-6.27-6.665-10.725-.04-.934-.012-1.874-.012-2.808V66.1c0-2.412.407-4.738 1.584-6.879 2.147-3.906 6.27-6.474 10.725-6.665 4.484-.191 8.826 2.026 11.3 5.77 1.507 2.28 2.125 4.877 2.125 7.582V112.59l.001 2.622zM25.744 115.212c0 4.473-2.395 8.709-6.223 11.021-3.882 2.345-8.861 2.447-12.835.261-3.906-2.148-6.474-6.27-6.665-10.725-.04-.934-.012-1.874-.012-2.808V66.1c0-2.412.407-4.738 1.584-6.879 2.148-3.906 6.27-6.474 10.725-6.665 4.483-.191 8.826 2.026 11.3 5.77 1.507 2.28 2.125 4.877 2.125 7.582V112.59l.001 2.622z" fill="#000000" data-original="#000000"></path></g></svg>