<svg xmlns="http://www.w3.org/2000/svg" version="1.1" xmlns:xlink="http://www.w3.org/1999/xlink" xmlns:svgjs="http://svgjs.com/svgjs" width="512" height="512" x="0" y="0" viewBox="0 0 512 512" style="enable-background:new 0 0 512 512" xml:space="preserve"><g><path d="M332 120h-30V0h-30v120h-30V0h-30v136.097c0 30.752 18.516 57.167 45 68.741V482c0 16.569 13.431 30 30 30s30-13.431 30-30V204.838c26.484-11.575 45-37.99 45-68.741V0h-30zM91 15c-41.974 0-76 53.726-76 120 0 31.318 18.947 58.202 46 69.839V482c0 16.569 13.431 30 30 30s30-13.431 30-30V204.839c27.053-11.637 46-38.521 46-69.839 0-66.274-34.026-120-76-120zM407 105v159.047c17.929 10.375 30 29.749 30 51.953v166c0 16.569 13.431 30 30 30s30-13.431 30-30V15c-49.706 0-90 40.294-90 90z" fill="#000000" data-original="#000000"></path></g></svg>