<svg xmlns="http://www.w3.org/2000/svg" version="1.1" xmlns:xlink="http://www.w3.org/1999/xlink" xmlns:svgjs="http://svgjs.com/svgjs" width="512" height="512" x="0" y="0" viewBox="0 0 32 32" style="enable-background:new 0 0 512 512" xml:space="preserve"><g><path d="M16.057 25.106c-1.097.404-2.49.916-4.252 1.569-3.009-.42-6.171-1.399-7.538-3.646.498-1.341.932-2.516 1.316-3.553 2.576 2.976 7.077 4.866 10.474 5.63zM16.931 15.069c-2.928-2.927-6.698-5.089-8.235-3.549-.328.328-.229.132-2.508 6.317 2.43 3.507 8.57 5.956 12.847 6.171 1.279-.481 1.249-.505 1.446-.703 1.885-1.885-1.666-6.353-3.55-8.236zm2.488 7.174c-.143.145-.808.152-1.989-.431-1.284-.635-2.749-1.742-4.125-3.118-3.188-3.188-3.933-5.73-3.549-6.114.06-.06.172-.092.331-.092.861 0 3.092.951 5.784 3.642 1.376 1.376 2.484 2.841 3.119 4.125.583 1.179.573 1.845.429 1.988zM9.059 27.694c-1.732.644-3.729 1.39-6.048 2.259a.75.75 0 0 1-.964-.964l1.591-4.268c1.318 1.514 3.3 2.432 5.421 2.973zM19.669 3.895c-.467.082-.918.156-1.224.31.46.706 1.421 1.605.834 2.779-.525 1.05-1.616.988-2.563 1.021.581.794 1.253 1.599.735 2.636-.537 1.075-1.945 1.298-2.776 1.433a.497.497 0 0 1-.569-.403l-.182-.982a.501.501 0 0 1 .406-.584c.473-.083.916-.155 1.224-.31-.462-.701-1.419-1.609-.835-2.778.524-1.047 1.614-.988 2.563-1.021-.582-.794-1.253-1.599-.735-2.636.537-1.074 1.946-1.298 2.775-1.433a.496.496 0 0 1 .568.403l.182.982a.496.496 0 0 1-.403.583zM28.689 11.925l.982.182c.268.05.447.3.403.568-.135.829-.359 2.238-1.433 2.775-1.037.518-1.842-.153-2.636-.735-.033.949.026 2.04-1.021 2.563-1.169.584-2.077-.373-2.778-.835-.155.308-.227.751-.31 1.224a.5.5 0 0 1-.584.406l-.982-.182a.497.497 0 0 1-.403-.569c.135-.83.359-2.238 1.433-2.776 1.036-.518 1.842.154 2.636.735.033-.947-.029-2.039 1.021-2.563 1.174-.587 2.073.374 2.779.834.154-.306.228-.757.31-1.224a.5.5 0 0 1 .583-.403zM25.7 21h-1.9a.3.3 0 0 1-.3-.3v-.9a.3.3 0 0 1 .3-.3h1.9a.3.3 0 0 1 .3.3v.9a.3.3 0 0 1-.3.3zM27.788 3.273l-1.344 1.344a.3.3 0 0 1-.424 0l-.636-.637a.3.3 0 0 1 0-.424l1.344-1.344a.3.3 0 0 1 .424 0l.636.636a.301.301 0 0 1 0 .425zM12.2 6.5h-.9a.3.3 0 0 1-.3-.3V4.3a.3.3 0 0 1 .3-.3h.9a.3.3 0 0 1 .3.3v1.9a.3.3 0 0 1-.3.3zM19.383 13.255l-.75-.5a.302.302 0 0 1-.085-.423c2.041-2.904 5.976-5.931 10.139-6.077a.308.308 0 0 1 .313.307v.901c0 .16-.126.285-.286.292-3.483.138-7.051 2.761-8.928 5.424a.29.29 0 0 1-.403.076z" fill="#000000" data-original="#000000"></path></g></svg>