<svg xmlns="http://www.w3.org/2000/svg" version="1.1" xmlns:xlink="http://www.w3.org/1999/xlink" xmlns:svgjs="http://svgjs.com/svgjs" width="512" height="512" x="0" y="0" viewBox="0 0 32 32" style="enable-background:new 0 0 512 512" xml:space="preserve"><g><path d="M28 13h1a1 1 0 0 0 0-2h-2.434l-1.835-3.058A4 4 0 0 0 21.301 6H10.699a4 4 0 0 0-3.43 1.942L5.434 11H3a1 1 0 0 0 0 2h1l-1.2 1.601a4 4 0 0 0-.8 2.4v4a2 2 0 0 0 2 2v1a2 2 0 0 0 2 2h2a2 2 0 0 0 2-2v-1h12v1a2 2 0 0 0 2 2h2a2 2 0 0 0 2-2v-1a2 2 0 0 0 2-2v-4c0-.865-.281-1.708-.8-2.4zM6.5 20a1.5 1.5 0 1 1 .001-3.001A1.5 1.5 0 0 1 6.5 20zm17.457-7.84a5 5 0 0 1-2.774.84H10.816a5.002 5.002 0 0 1-2.773-.839l-.695-.463 1.636-2.726a2 2 0 0 1 1.715-.971h10.603a2 2 0 0 1 1.715.971l1.636 2.726-.695.463zM25.5 20a1.5 1.5 0 1 1 .001-3.001A1.5 1.5 0 0 1 25.5 20z" fill="#000000" data-original="#000000"></path></g></svg>